<svg id="svg" version="1.1" xmlns="http://www.w3.org/2000/svg" xmlns:xlink="http://www.w3.org/1999/xlink" width="400" height="194.12057797708022" viewBox="0, 0, 400,194.12057797708022"><g id="svgg"><path id="path0" d="M22.157 52.427 C 22.158 55.246,23.762 60.850,25.619 64.522 C 30.426 74.034,38.514 79.186,50.542 80.400 C 53.299 80.678,53.301 80.677,51.895 79.560 C 51.280 79.072,49.772 77.690,48.544 76.491 C 47.316 75.291,45.612 73.702,44.757 72.959 C 43.903 72.216,41.937 70.408,40.388 68.941 C 38.840 67.474,36.568 65.366,35.340 64.256 C 34.112 63.146,32.408 61.568,31.553 60.749 C 30.699 59.929,28.376 57.771,26.391 55.952 C 24.405 54.133,22.641 52.443,22.469 52.196 L 22.156 51.748 22.157 52.427 M38.350 113.395 C 36.000 113.477,31.728 113.554,28.855 113.568 L 23.633 113.592 23.756 115.971 C 24.338 127.237,24.397 155.710,23.869 171.123 C 23.742 174.838,23.688 177.928,23.750 177.990 C 24.001 178.241,47.445 178.159,49.612 177.899 C 64.354 176.133,71.698 170.894,73.016 161.203 C 74.281 151.902,69.443 145.315,59.732 143.116 C 57.739 142.665,57.717 142.212,59.651 141.456 C 66.534 138.765,69.834 133.730,69.450 126.505 C 68.893 116.014,60.836 112.618,38.350 113.395 M48.155 122.526 C 53.790 123.389,56.346 126.111,56.360 131.262 C 56.373 136.299,53.150 139.165,46.311 140.198 C 44.159 140.523,36.980 140.685,36.811 140.413 C 36.734 140.288,36.594 136.977,36.498 133.054 C 36.403 129.132,36.265 125.324,36.191 124.593 C 36.028 122.976,35.980 123.016,38.429 122.736 C 42.150 122.311,46.180 122.224,48.155 122.526 M48.932 149.641 C 56.169 150.600,60.000 153.855,60.000 159.043 C 60.000 164.894,56.426 167.848,48.252 168.751 C 45.801 169.022,39.354 169.054,38.058 168.801 L 37.184 168.631 37.046 166.403 C 36.969 165.177,36.882 160.854,36.851 156.796 L 36.796 149.417 38.835 149.300 C 41.691 149.136,46.292 149.291,48.932 149.641 " stroke="none" fill="#81babd" fill-rule="evenodd"></path><path id="path1" d="M10.583 0.203 C 5.678 1.215,1.844 4.884,0.448 9.903 C -0.020 11.587,-0.105 84.050,0.359 86.117 C 1.549 91.418,5.622 95.457,10.745 96.414 C 13.030 96.842,84.469 96.836,86.488 96.408 C 91.100 95.431,94.668 92.155,96.288 87.411 L 96.796 85.922 96.796 48.447 C 96.796 6.272,96.936 10.172,95.303 6.911 C 93.728 3.766,90.164 1.029,86.686 0.292 C 85.171 -0.029,12.121 -0.115,10.583 0.203 M107.229 0.391 C 102.854 1.537,99.385 4.821,98.144 8.989 C 97.947 9.652,97.738 10.238,97.679 10.291 C 97.441 10.509,97.430 12.395,97.464 48.201 C 97.498 84.812,97.505 85.455,97.888 86.837 C 99.115 91.264,102.071 94.460,106.357 95.993 L 108.058 96.602 145.193 96.653 C 176.691 96.697,182.526 96.663,183.639 96.429 C 188.794 95.344,192.525 91.824,193.799 86.844 C 194.285 84.945,194.385 12.375,193.905 10.194 C 192.791 5.132,188.716 1.147,183.675 0.192 C 181.493 -0.222,108.846 -0.032,107.229 0.391 M65.967 16.205 C 68.453 16.552,70.643 16.986,70.826 17.169 C 70.965 17.308,69.520 28.173,69.332 28.394 C 69.266 28.472,68.516 28.370,67.664 28.167 C 58.372 25.957,50.734 26.161,45.584 28.757 C 35.315 33.933,32.200 51.054,39.525 62.063 C 44.236 69.143,51.257 72.026,60.904 70.840 C 63.094 70.571,63.024 70.672,62.732 68.202 C 62.609 67.162,62.421 63.864,62.316 60.874 C 62.210 57.883,61.990 54.257,61.827 52.816 C 61.664 51.374,61.480 49.735,61.418 49.175 L 61.305 48.155 68.130 48.155 L 74.954 48.155 74.807 53.835 C 74.621 61.037,74.622 64.854,74.813 72.165 L 74.967 78.019 72.471 78.609 C 53.218 83.156,39.249 80.888,30.569 71.804 C 14.273 54.750,22.092 24.424,44.563 17.526 C 50.260 15.777,59.025 15.236,65.967 16.205 M146.597 17.039 C 146.964 17.653,148.762 20.733,150.593 23.883 C 154.089 29.903,161.934 43.359,169.249 55.884 C 171.638 59.974,173.592 63.404,173.592 63.505 C 173.592 63.619,170.211 63.689,164.790 63.689 L 155.988 63.689 152.850 58.301 L 149.711 52.913 152.784 52.816 L 155.856 52.718 153.979 49.515 C 152.946 47.752,150.808 44.083,149.229 41.359 C 147.649 38.636,146.295 36.364,146.220 36.311 C 146.108 36.232,142.268 29.691,140.455 26.493 L 140.008 25.705 142.840 20.814 C 144.398 18.123,145.730 15.922,145.800 15.922 C 145.871 15.922,146.229 16.425,146.597 17.039 M138.064 37.184 C 139.171 39.107,141.150 42.549,142.463 44.834 L 144.851 48.989 144.483 49.592 C 144.281 49.923,143.007 52.117,141.651 54.466 C 140.296 56.816,139.075 58.855,138.938 58.998 C 138.734 59.212,138.441 58.824,137.291 56.813 C 135.675 53.987,135.873 54.145,135.271 55.194 C 135.010 55.648,132.838 59.383,130.443 63.495 C 128.049 67.607,124.786 73.221,123.193 75.971 L 120.297 80.971 114.129 80.971 C 110.510 80.971,107.961 80.897,107.961 80.792 C 107.961 80.694,108.954 78.925,110.168 76.860 C 111.381 74.796,114.511 69.437,117.122 64.951 C 134.614 34.909,135.623 33.210,135.838 33.449 C 135.956 33.581,136.958 35.262,138.064 37.184 M149.387 65.583 C 149.437 65.663,148.874 66.766,148.137 68.035 C 147.399 69.304,146.796 70.417,146.796 70.509 C 146.796 70.602,153.785 70.700,162.366 70.727 L 177.936 70.777 180.809 75.728 C 182.389 78.451,183.683 80.745,183.685 80.825 C 183.688 80.905,171.325 80.971,156.214 80.971 C 141.102 80.971,128.738 80.900,128.738 80.814 C 128.738 80.727,129.925 78.608,131.376 76.105 C 132.827 73.602,134.764 70.243,135.680 68.641 C 136.596 67.039,137.441 65.664,137.556 65.585 C 137.834 65.397,149.271 65.394,149.387 65.583 M11.517 97.475 C 9.145 97.826,6.808 98.847,4.845 100.388 C 4.505 100.655,4.167 100.917,4.095 100.971 C 3.696 101.264,2.042 103.644,1.555 104.627 C 0.276 107.203,0.184 107.953,0.305 114.750 L 0.413 120.874 3.941 124.369 C 5.881 126.291,7.717 128.053,8.021 128.284 C 8.326 128.516,10.381 130.447,12.588 132.576 C 14.796 134.706,17.688 137.488,19.016 138.758 C 20.344 140.028,22.024 141.636,22.749 142.330 L 24.068 143.592 24.138 146.311 C 24.176 147.806,24.175 144.617,24.136 139.223 C 24.062 129.118,23.764 115.656,23.583 114.254 L 23.481 113.459 34.119 113.283 C 47.780 113.057,51.642 113.113,54.854 113.585 C 64.908 115.063,69.616 119.506,69.575 127.476 C 69.539 134.483,66.267 139.125,59.660 141.545 C 58.364 142.019,58.002 142.610,58.883 142.810 C 59.124 142.865,59.757 143.002,60.291 143.115 C 66.665 144.467,71.826 149.065,72.921 154.369 C 75.041 164.642,70.225 172.333,59.351 176.041 C 58.266 176.411,57.616 176.665,57.907 176.607 C 58.409 176.506,61.165 178.388,61.165 178.832 C 61.165 178.910,62.760 180.477,64.709 182.314 C 66.658 184.152,69.257 186.638,70.485 187.839 C 71.714 189.041,73.680 190.922,74.854 192.020 L 76.990 194.016 81.650 193.926 C 86.610 193.829,87.390 193.699,89.556 192.604 C 90.592 192.081,92.816 190.469,92.816 190.242 C 92.816 190.150,92.903 190.128,93.010 190.194 C 93.117 190.260,93.204 190.222,93.204 190.109 C 93.204 189.995,93.372 189.735,93.576 189.530 C 95.086 188.021,96.396 184.991,96.705 182.297 C 97.105 178.805,96.868 108.498,96.451 107.111 C 95.042 102.419,91.797 99.174,87.076 97.739 C 85.845 97.365,13.961 97.114,11.517 97.475 M108.498 97.480 C 103.335 98.359,99.496 101.864,97.870 107.184 C 97.258 109.185,97.254 181.604,97.865 183.939 C 99.378 189.713,103.608 193.358,109.515 193.975 C 111.919 194.227,180.271 194.241,182.447 193.991 C 188.028 193.349,192.413 189.546,193.793 184.151 C 194.309 182.131,194.394 109.902,193.883 107.488 C 192.923 102.956,189.323 99.240,184.400 97.701 C 183.296 97.355,110.474 97.144,108.498 97.480 M152.740 116.553 C 152.095 133.675,152.095 153.835,152.740 174.223 L 152.874 178.447 146.000 178.444 C 142.219 178.442,139.036 178.376,138.926 178.298 C 138.792 178.203,138.769 176.957,138.857 174.563 C 139.479 157.501,139.477 129.909,138.852 116.214 C 138.779 114.612,138.751 113.235,138.789 113.155 C 138.827 113.075,142.011 113.010,145.866 113.010 L 152.873 113.010 152.740 116.553 M38.641 122.850 C 35.941 123.191,36.117 123.017,36.322 125.146 C 36.414 126.107,36.551 129.930,36.626 133.641 L 36.762 140.388 40.468 140.385 C 51.585 140.374,56.886 137.049,56.219 130.506 C 55.532 123.766,50.108 121.404,38.641 122.850 M37.330 149.461 L 36.699 149.539 36.699 152.362 C 36.699 155.379,36.913 156.294,37.721 156.727 C 37.936 156.841,39.172 157.952,40.470 159.196 C 41.767 160.439,44.377 162.936,46.269 164.744 C 48.161 166.552,49.709 168.092,49.709 168.166 C 49.709 168.654,38.858 168.916,37.573 168.458 L 37.184 168.320 37.573 168.569 C 39.204 169.616,50.505 168.740,54.401 167.265 C 61.584 164.545,61.915 154.843,54.941 151.411 C 51.502 149.719,42.913 148.768,37.330 149.461 M23.960 161.359 C 23.960 162.801,23.990 163.391,24.027 162.670 C 24.065 161.949,24.065 160.769,24.027 160.049 C 23.990 159.328,23.960 159.917,23.960 161.359 M36.960 162.233 C 36.960 163.087,36.995 163.413,37.036 162.956 C 37.077 162.499,37.076 161.800,37.034 161.403 C 36.993 161.005,36.959 161.379,36.960 162.233 M37.143 167.282 C 37.144 167.816,37.182 168.011,37.227 167.716 C 37.271 167.421,37.270 166.984,37.224 166.745 C 37.178 166.506,37.141 166.748,37.143 167.282 M23.757 169.903 C 23.757 170.811,23.791 171.182,23.831 170.728 C 23.872 170.274,23.872 169.532,23.831 169.078 C 23.791 168.624,23.757 168.995,23.757 169.903 M23.557 175.728 C 23.557 176.422,23.593 176.706,23.636 176.359 C 23.679 176.012,23.679 175.444,23.636 175.097 C 23.593 174.750,23.557 175.034,23.557 175.728 M25.291 178.201 C 25.799 178.241,26.629 178.241,27.136 178.201 C 27.643 178.161,27.228 178.128,26.214 178.128 C 25.199 178.128,24.784 178.161,25.291 178.201 M47.136 178.195 C 47.376 178.242,47.769 178.242,48.010 178.195 C 48.250 178.149,48.053 178.111,47.573 178.111 C 47.092 178.111,46.896 178.149,47.136 178.195 M35.000 178.397 C 35.934 178.433,37.464 178.433,38.398 178.397 C 39.333 178.361,38.568 178.332,36.699 178.332 C 34.830 178.332,34.066 178.361,35.000 178.397 M42.288 178.396 C 42.852 178.435,43.726 178.435,44.230 178.395 C 44.734 178.355,44.272 178.323,43.204 178.323 C 42.136 178.324,41.724 178.356,42.288 178.396 " stroke="none" fill="#2c3c52" fill-rule="evenodd"></path><path id="path2" d="M54.078 15.858 C 37.712 17.215,26.231 26.683,22.805 41.647 C 22.146 44.527,21.507 54.383,22.119 52.233 C 22.256 51.749,22.258 51.749,22.483 52.163 C 22.607 52.391,24.349 54.081,26.354 55.918 C 28.359 57.756,30.699 59.929,31.553 60.749 C 32.408 61.568,34.112 63.146,35.340 64.256 C 36.568 65.366,38.840 67.474,40.388 68.941 C 41.937 70.408,43.903 72.216,44.757 72.959 C 45.612 73.702,47.316 75.291,48.544 76.491 C 49.772 77.690,51.280 79.072,51.895 79.560 C 53.301 80.677,53.299 80.678,50.542 80.400 C 46.638 80.006,42.822 79.130,40.016 77.985 C 39.330 77.705,38.739 77.507,38.701 77.545 C 38.590 77.656,41.349 78.762,42.816 79.194 C 50.987 81.600,60.095 81.444,71.898 78.695 L 74.961 77.982 74.811 72.729 C 74.624 66.225,74.626 57.918,74.815 52.476 L 74.958 48.350 68.137 48.350 L 61.315 48.350 61.435 49.175 C 61.902 52.406,62.171 55.806,62.343 60.680 C 62.452 63.777,62.652 67.255,62.788 68.409 C 62.924 69.563,62.986 70.537,62.925 70.574 C 61.798 71.261,53.628 71.165,50.851 70.431 C 39.530 67.442,32.951 54.215,36.328 41.232 C 39.667 28.394,50.427 23.913,67.767 28.139 C 68.568 28.334,69.253 28.468,69.289 28.437 C 69.345 28.388,70.874 17.615,70.874 17.268 C 70.874 16.471,58.859 15.461,54.078 15.858 M133.211 37.535 C 131.880 39.798,129.492 43.879,127.904 46.602 C 126.316 49.325,124.292 52.777,123.407 54.272 C 122.522 55.767,120.529 59.175,118.977 61.845 C 113.503 71.264,108.797 79.328,108.382 80.000 C 108.152 80.374,107.962 80.745,107.962 80.825 C 107.961 80.905,110.735 80.971,114.126 80.971 L 120.291 80.970 120.860 79.951 C 122.287 77.394,135.654 54.379,135.792 54.241 C 135.832 54.200,136.495 55.261,137.264 56.598 C 138.034 57.935,138.724 59.026,138.798 59.023 C 138.920 59.017,142.806 52.448,144.154 49.967 L 144.717 48.933 143.106 46.165 C 142.219 44.643,140.234 41.214,138.693 38.544 C 137.152 35.874,135.832 33.629,135.761 33.554 C 135.690 33.480,134.542 35.271,133.211 37.535 M152.170 45.874 C 154.729 50.360,155.937 52.635,155.842 52.789 C 155.779 52.890,154.489 52.922,152.818 52.862 C 151.215 52.806,149.903 52.829,149.903 52.915 C 149.903 53.001,151.277 55.417,152.956 58.283 L 156.009 63.495 163.647 63.495 L 171.285 63.495 168.897 61.117 C 167.583 59.808,166.245 58.539,165.924 58.297 C 165.603 58.054,163.767 56.342,161.845 54.493 C 159.922 52.643,157.065 49.932,155.495 48.469 C 153.926 47.005,152.424 45.550,152.158 45.234 C 151.410 44.345,151.414 44.548,152.170 45.874 M22.643 56.796 C 23.624 62.807,28.682 71.112,33.336 74.353 L 34.272 75.005 33.204 74.066 C 27.904 69.411,24.448 63.804,23.098 57.670 C 22.808 56.353,22.462 55.690,22.643 56.796 M136.834 66.748 C 136.466 67.362,135.442 69.131,134.559 70.680 C 133.676 72.228,132.045 75.048,130.935 76.947 C 129.824 78.845,128.864 80.534,128.800 80.700 C 128.683 81.006,183.078 81.064,183.384 80.758 C 183.501 80.641,182.075 78.118,179.281 73.495 L 177.755 70.971 173.683 70.852 C 171.444 70.787,164.434 70.722,158.107 70.707 C 151.779 70.692,146.602 70.631,146.602 70.573 C 146.602 70.514,147.214 69.432,147.961 68.169 C 148.709 66.905,149.320 65.818,149.320 65.751 C 149.320 65.685,146.662 65.631,143.412 65.631 L 137.504 65.631 136.834 66.748 M34.500 75.161 C 34.741 75.453,35.922 76.196,35.922 76.056 C 35.922 76.011,35.551 75.729,35.097 75.430 C 34.643 75.130,34.374 75.010,34.500 75.161 M36.117 76.204 C 36.117 76.257,36.379 76.436,36.699 76.602 C 37.019 76.768,37.282 76.859,37.282 76.806 C 37.282 76.753,37.019 76.573,36.699 76.408 C 36.379 76.242,36.117 76.150,36.117 76.204 M46.364 113.152 C 46.821 113.193,47.520 113.193,47.918 113.151 C 48.315 113.109,47.942 113.076,47.087 113.076 C 46.233 113.077,45.908 113.111,46.364 113.152 M38.107 113.348 C 38.934 113.385,40.289 113.385,41.117 113.348 C 41.944 113.312,41.267 113.282,39.612 113.282 C 37.956 113.282,37.279 113.312,38.107 113.348 M51.165 113.340 C 56.391 113.698,61.049 114.948,64.017 116.789 C 64.781 117.263,64.958 117.330,64.563 116.996 C 62.368 115.138,55.202 113.114,51.262 113.240 L 50.194 113.274 51.165 113.340 M138.918 115.874 C 139.586 130.004,139.585 152.287,138.914 173.932 L 138.781 178.252 145.824 178.252 L 152.867 178.252 152.737 174.903 C 152.082 158.055,152.078 126.934,152.730 115.388 L 152.854 113.204 145.823 113.204 L 138.791 113.204 138.918 115.874 M23.518 113.835 C 23.534 114.159,23.563 114.185,23.628 113.935 C 23.709 113.626,24.200 113.593,29.480 113.544 L 35.243 113.489 29.369 113.444 L 23.495 113.398 23.518 113.835 M23.753 117.767 C 23.754 118.515,23.789 118.797,23.831 118.394 C 23.873 117.991,23.872 117.379,23.829 117.035 C 23.787 116.690,23.752 117.019,23.753 117.767 M66.117 118.447 C 66.642 118.981,67.116 119.417,67.170 119.417 C 67.223 119.417,66.837 118.981,66.311 118.447 C 65.785 117.913,65.311 117.476,65.257 117.476 C 65.204 117.476,65.591 117.913,66.117 118.447 M23.952 123.981 C 23.952 124.942,23.985 125.359,24.025 124.909 C 24.066 124.458,24.067 123.672,24.026 123.161 C 23.986 122.651,23.953 123.019,23.952 123.981 M43.164 122.475 C 43.997 122.511,45.307 122.511,46.077 122.474 C 46.846 122.437,46.165 122.407,44.563 122.408 C 42.961 122.408,42.332 122.438,43.164 122.475 M39.565 122.662 C 39.807 122.708,40.156 122.706,40.342 122.658 C 40.528 122.609,40.330 122.571,39.903 122.573 C 39.476 122.575,39.324 122.615,39.565 122.662 M37.913 122.852 C 38.100 122.901,38.405 122.901,38.592 122.852 C 38.779 122.803,38.626 122.763,38.252 122.763 C 37.879 122.763,37.726 122.803,37.913 122.852 M51.787 123.677 C 53.381 124.431,54.615 125.601,55.335 127.041 C 55.658 127.688,55.922 128.094,55.921 127.944 C 55.911 126.552,52.285 123.106,50.832 123.107 C 50.695 123.107,51.124 123.363,51.787 123.677 M36.162 124.466 C 36.162 124.840,36.202 124.993,36.250 124.806 C 36.299 124.619,36.299 124.313,36.250 124.126 C 36.202 123.939,36.162 124.092,36.162 124.466 M36.366 127.282 C 36.368 127.816,36.405 128.011,36.450 127.716 C 36.495 127.421,36.493 126.984,36.447 126.745 C 36.401 126.506,36.365 126.748,36.366 127.282 M69.570 127.282 C 69.572 127.816,69.609 128.011,69.654 127.716 C 69.699 127.421,69.697 126.984,69.651 126.745 C 69.605 126.506,69.569 126.748,69.570 127.282 M56.059 129.223 C 56.121 129.757,56.203 130.231,56.241 130.275 C 56.386 130.443,56.276 129.012,56.115 128.641 C 56.007 128.391,55.987 128.599,56.059 129.223 M24.162 134.563 C 24.162 137.180,24.189 138.250,24.223 136.942 C 24.256 135.633,24.256 133.493,24.223 132.184 C 24.189 130.876,24.162 131.947,24.162 134.563 M56.356 131.456 C 56.356 131.830,56.396 131.983,56.445 131.796 C 56.493 131.609,56.493 131.303,56.445 131.117 C 56.396 130.930,56.356 131.083,56.356 131.456 M36.583 134.757 C 36.583 136.413,36.613 137.090,36.649 136.262 C 36.686 135.434,36.686 134.080,36.649 133.252 C 36.613 132.425,36.583 133.102,36.583 134.757 M55.136 135.551 C 55.017 135.774,54.603 136.320,54.215 136.765 L 53.511 137.573 54.186 136.948 C 54.822 136.359,55.676 135.146,55.455 135.146 C 55.399 135.146,55.256 135.328,55.136 135.551 M65.146 138.193 C 64.450 138.842,64.294 139.041,64.757 138.688 C 65.490 138.130,66.572 137.077,66.393 137.096 C 66.348 137.101,65.786 137.595,65.146 138.193 M51.650 138.544 C 51.170 138.801,50.846 139.016,50.930 139.020 C 51.136 139.032,52.621 138.269,52.621 138.151 C 52.621 138.023,52.629 138.019,51.650 138.544 M63.251 139.595 C 62.453 140.107,62.342 140.287,63.046 139.929 C 63.386 139.756,63.719 139.526,63.786 139.419 C 63.941 139.167,63.895 139.182,63.251 139.595 M37.724 140.531 C 38.235 140.571,39.021 140.571,39.472 140.530 C 39.923 140.490,39.505 140.457,38.544 140.457 C 37.583 140.458,37.214 140.491,37.724 140.531 M41.311 140.529 C 41.658 140.572,42.226 140.572,42.573 140.529 C 42.920 140.486,42.636 140.450,41.942 140.450 C 41.248 140.450,40.964 140.486,41.311 140.529 M58.314 142.315 C 58.333 142.574,58.481 142.820,58.641 142.864 C 58.833 142.916,58.857 142.888,58.712 142.782 C 58.591 142.694,58.443 142.447,58.385 142.233 C 58.300 141.927,58.285 141.944,58.314 142.315 M62.330 143.851 C 62.490 143.950,62.840 144.089,63.107 144.161 C 63.444 144.251,63.503 144.235,63.301 144.110 C 63.141 144.011,62.791 143.872,62.524 143.801 C 62.187 143.710,62.128 143.726,62.330 143.851 M63.706 144.346 C 63.904 144.526,65.825 145.433,65.825 145.346 C 65.825 145.237,63.971 144.272,63.761 144.272 C 63.686 144.272,63.661 144.305,63.706 144.346 M68.544 147.245 C 68.544 147.279,68.828 147.563,69.175 147.876 L 69.806 148.447 69.236 147.816 C 68.704 147.227,68.544 147.095,68.544 147.245 M24.161 153.398 C 24.161 155.801,24.189 156.784,24.223 155.583 C 24.257 154.381,24.257 152.415,24.223 151.214 C 24.189 150.012,24.161 150.995,24.161 153.398 M41.510 149.269 C 41.967 149.310,42.666 149.309,43.063 149.267 C 43.461 149.226,43.087 149.192,42.233 149.193 C 41.379 149.193,41.053 149.228,41.510 149.269 M71.659 151.095 C 71.654 151.164,71.823 151.601,72.035 152.066 C 72.246 152.532,72.417 152.782,72.415 152.621 C 72.411 152.336,71.675 150.850,71.659 151.095 M57.087 152.682 C 57.087 152.716,57.371 153.000,57.718 153.313 L 58.350 153.883 57.779 153.252 C 57.248 152.664,57.087 152.532,57.087 152.682 M72.546 153.495 C 72.705 154.209,72.817 154.364,72.813 153.867 C 72.811 153.663,72.721 153.364,72.612 153.204 C 72.469 152.991,72.451 153.070,72.546 153.495 M36.771 157.282 C 36.771 158.403,36.803 158.862,36.842 158.301 C 36.881 157.740,36.881 156.823,36.842 156.262 C 36.803 155.701,36.771 156.160,36.771 157.282 M73.055 155.922 C 73.055 156.296,73.095 156.449,73.144 156.262 C 73.192 156.075,73.192 155.769,73.144 155.583 C 73.095 155.396,73.055 155.549,73.055 155.922 M73.270 158.350 C 73.271 159.204,73.305 159.529,73.346 159.073 C 73.387 158.616,73.387 157.917,73.345 157.519 C 73.303 157.121,73.270 157.495,73.270 158.350 M59.851 158.252 C 59.851 158.626,59.891 158.779,59.940 158.592 C 59.989 158.405,59.989 158.100,59.940 157.913 C 59.891 157.726,59.851 157.879,59.851 158.252 M59.851 160.000 C 59.851 160.374,59.891 160.527,59.940 160.340 C 59.989 160.153,59.989 159.847,59.940 159.660 C 59.891 159.473,59.851 159.626,59.851 160.000 M73.055 161.165 C 73.055 161.539,73.095 161.692,73.144 161.505 C 73.192 161.318,73.192 161.012,73.144 160.825 C 73.095 160.638,73.055 160.791,73.055 161.165 M36.946 164.466 C 36.946 164.947,36.984 165.143,37.030 164.903 C 37.077 164.663,37.077 164.269,37.030 164.029 C 36.984 163.789,36.946 163.985,36.946 164.466 M23.951 165.437 C 23.951 166.345,23.985 166.716,24.026 166.262 C 24.067 165.808,24.067 165.066,24.026 164.612 C 23.985 164.158,23.951 164.529,23.951 165.437 M71.397 166.701 C 71.220 167.074,71.114 167.379,71.163 167.379 C 71.296 167.379,71.886 166.190,71.797 166.101 C 71.755 166.059,71.575 166.329,71.397 166.701 M41.602 169.073 C 42.002 169.115,42.658 169.115,43.058 169.073 C 43.459 169.032,43.131 168.997,42.330 168.997 C 41.529 168.997,41.201 169.032,41.602 169.073 M23.748 172.427 C 23.748 173.015,23.784 173.255,23.828 172.961 C 23.873 172.667,23.873 172.187,23.828 171.893 C 23.784 171.600,23.748 171.840,23.748 172.427 M23.540 177.476 C 23.540 177.850,23.580 178.002,23.629 177.816 C 23.678 177.629,23.678 177.323,23.629 177.136 C 23.580 176.949,23.540 177.102,23.540 177.476 M28.694 178.201 C 29.151 178.242,29.850 178.241,30.248 178.199 C 30.646 178.158,30.272 178.124,29.417 178.125 C 28.563 178.126,28.238 178.160,28.694 178.201 M40.342 178.390 C 40.584 178.436,40.933 178.434,41.119 178.386 C 41.304 178.337,41.107 178.299,40.680 178.301 C 40.252 178.304,40.101 178.343,40.342 178.390 " stroke="none" fill="#62af87" fill-rule="evenodd"></path><path id="path3" d="M93.002 3.738 C 93.478 4.245,93.893 4.660,93.924 4.660 C 94.070 4.660,93.916 4.486,93.058 3.681 L 92.136 2.816 93.002 3.738 M3.774 3.738 L 3.204 4.369 3.835 3.799 C 4.423 3.267,4.555 3.107,4.405 3.107 C 4.372 3.107,4.088 3.391,3.774 3.738 M97.376 51.553 C 97.376 69.282,97.399 76.563,97.427 67.734 C 97.455 58.905,97.455 44.400,97.427 35.501 C 97.399 26.602,97.376 33.825,97.376 51.553 M264.932 26.751 C 264.784 26.849,264.768 27.340,264.879 28.350 C 265.335 32.474,265.457 42.566,265.155 51.214 L 265.072 53.592 266.590 53.592 C 267.689 53.592,268.173 53.513,268.345 53.307 C 268.551 53.058,268.686 53.077,269.388 53.451 C 270.683 54.141,275.374 54.095,276.905 53.377 C 283.504 50.282,284.111 38.411,277.824 35.368 C 275.271 34.131,270.790 34.546,268.955 36.188 L 268.492 36.602 268.598 31.602 L 268.704 26.602 266.925 26.605 C 265.946 26.607,265.049 26.672,264.932 26.751 M217.476 28.448 C 216.157 28.745,215.117 29.109,214.951 29.332 C 214.898 29.404,214.499 29.643,214.064 29.863 C 205.875 34.013,204.976 46.725,212.524 51.628 C 212.951 51.905,213.348 52.195,213.405 52.272 C 214.601 53.882,222.070 54.244,227.327 52.947 L 228.252 52.718 228.252 46.748 L 228.252 40.777 225.458 40.777 L 222.663 40.777 222.791 41.990 C 222.861 42.658,222.964 44.252,223.019 45.534 C 223.075 46.816,223.157 48.224,223.203 48.663 L 223.286 49.462 222.080 49.584 C 216.333 50.165,212.273 45.505,213.165 39.353 C 213.962 33.859,217.485 31.882,224.233 33.143 C 226.077 33.487,226.017 33.510,226.159 32.395 C 226.218 31.932,226.337 31.463,226.423 31.353 C 226.925 30.710,226.707 28.680,226.117 28.495 C 225.061 28.164,218.883 28.130,217.476 28.448 M319.672 32.823 C 318.908 33.059,317.906 34.240,317.746 35.092 C 317.680 35.442,317.615 35.728,317.600 35.728 C 317.585 35.728,317.092 35.534,316.505 35.297 C 314.883 34.644,310.510 34.655,308.835 35.317 C 304.709 36.948,303.435 42.844,306.591 45.695 C 307.332 46.365,307.339 46.383,306.968 46.720 C 305.542 48.010,305.296 52.039,306.644 52.039 C 307.037 52.039,306.721 52.557,306.161 52.832 C 303.610 54.083,303.174 58.886,305.399 61.232 C 307.656 63.612,314.806 63.913,318.703 61.792 C 322.346 59.809,323.716 54.645,321.297 52.017 C 320.190 50.814,318.920 50.478,314.757 50.283 C 309.032 50.016,307.986 49.581,308.734 47.777 C 309.037 47.046,309.205 46.996,310.569 47.231 C 312.839 47.622,315.899 47.024,317.823 45.813 C 319.871 44.524,320.822 40.052,319.536 37.752 C 318.817 36.465,319.480 35.926,321.783 35.923 C 322.805 35.922,322.804 35.924,323.005 34.145 C 323.082 33.472,323.054 33.000,322.932 32.925 C 322.569 32.700,320.300 32.630,319.672 32.823 M331.129 34.914 C 324.065 37.425,323.313 49.561,330.012 52.967 C 332.034 53.996,337.975 54.354,340.234 53.584 C 341.003 53.321,341.030 53.262,341.270 51.311 C 341.415 50.132,341.540 50.179,339.320 50.580 C 334.060 51.530,330.428 50.133,329.128 46.659 C 328.583 45.202,328.610 45.049,329.417 45.049 C 329.791 45.049,330.097 44.961,330.097 44.854 C 330.097 44.729,332.133 44.660,335.816 44.660 L 341.536 44.660 341.674 43.932 C 342.313 40.559,340.371 36.349,337.612 35.126 C 336.200 34.501,332.621 34.383,331.129 34.914 M234.233 35.096 C 232.457 35.427,232.589 35.266,232.319 37.451 L 232.190 38.494 232.843 38.397 C 233.201 38.343,234.224 38.192,235.115 38.060 C 240.215 37.307,242.807 38.239,243.050 40.912 L 243.155 42.078 242.524 42.204 C 242.177 42.273,241.435 42.330,240.875 42.330 C 234.183 42.330,230.092 46.242,231.856 50.956 C 233.097 54.273,239.348 55.120,242.765 52.432 L 243.267 52.038 243.398 52.815 L 243.529 53.592 245.163 53.592 C 246.061 53.592,246.794 53.527,246.792 53.447 C 246.790 53.367,246.692 52.689,246.574 51.942 C 246.455 51.194,246.348 47.917,246.335 44.660 L 246.311 38.738 245.728 37.573 C 244.432 34.980,239.990 34.023,234.233 35.096 M257.134 35.167 C 256.680 35.392,255.922 35.968,255.450 36.446 L 254.592 37.316 254.466 36.377 C 254.259 34.830,254.321 34.883,252.860 35.032 C 250.676 35.254,250.619 35.283,250.756 36.094 C 251.409 39.974,251.499 41.579,251.399 47.524 L 251.297 53.592 253.019 53.592 L 254.742 53.592 254.798 47.201 L 254.854 40.809 255.437 39.983 C 256.554 38.397,258.540 37.925,261.469 38.548 L 262.065 38.674 262.473 37.060 C 262.954 35.158,262.981 35.234,261.736 34.967 C 260.085 34.613,258.077 34.700,257.134 35.167 M288.107 35.099 C 286.663 35.390,286.602 35.424,286.602 35.942 C 286.602 36.239,286.515 36.536,286.408 36.602 C 286.155 36.758,286.154 38.447,286.408 38.447 C 286.514 38.447,287.410 38.307,288.398 38.136 C 293.860 37.193,296.815 38.201,296.922 41.044 C 296.966 42.210,297.076 42.151,294.487 42.345 C 290.319 42.656,288.707 43.239,286.973 45.066 C 284.459 47.714,284.916 51.576,287.955 53.363 C 290.067 54.605,296.252 53.717,297.016 52.063 C 297.115 51.848,297.196 52.026,297.270 52.621 L 297.379 53.495 299.009 53.552 L 300.639 53.609 300.480 52.581 C 300.392 52.016,300.304 48.801,300.285 45.437 C 300.241 38.042,300.037 37.137,298.099 35.757 C 296.681 34.748,291.532 34.408,288.107 35.099 M314.308 37.508 C 317.185 38.848,317.706 41.772,315.439 43.861 C 313.755 45.413,311.394 45.440,309.540 43.928 C 305.798 40.879,309.844 35.430,314.308 37.508 M334.175 37.282 C 334.175 37.388,334.388 37.476,334.648 37.476 C 336.308 37.476,337.690 38.986,337.972 41.106 L 338.100 42.073 334.730 42.201 C 328.168 42.450,328.432 42.541,329.432 40.388 C 330.244 38.638,331.664 37.476,332.991 37.476 C 333.309 37.476,333.623 37.388,333.689 37.282 C 333.755 37.175,333.892 37.087,333.992 37.087 C 334.093 37.087,334.175 37.175,334.175 37.282 M275.246 38.165 C 279.502 40.179,279.472 48.605,275.201 50.708 C 273.819 51.388,271.163 51.369,269.800 50.669 L 268.835 50.173 268.715 48.727 C 268.378 44.675,268.520 39.507,268.981 39.087 C 270.556 37.652,273.306 37.247,275.246 38.165 M243.107 47.074 L 243.107 49.488 242.573 49.856 C 241.410 50.656,238.833 51.172,237.379 50.895 C 233.272 50.114,234.816 45.569,239.347 45.102 C 239.920 45.043,240.388 44.919,240.388 44.827 C 240.388 44.735,241.000 44.660,241.748 44.660 L 243.107 44.660 243.107 47.074 M296.962 47.039 C 297.077 49.171,297.055 49.445,296.749 49.682 C 294.547 51.388,289.780 51.330,289.118 49.589 C 288.326 47.507,290.133 45.461,293.058 45.126 C 293.672 45.056,294.175 44.922,294.175 44.829 C 294.175 44.736,294.773 44.660,295.504 44.660 L 296.834 44.660 296.962 47.039 M313.408 53.581 C 318.134 53.801,319.147 54.241,319.364 56.167 C 319.754 59.622,313.820 62.025,309.425 60.192 C 306.683 59.048,306.144 55.199,308.519 53.725 C 309.112 53.357,308.798 53.366,313.408 53.581 M355.227 63.101 C 354.443 63.418,353.786 64.432,353.786 65.325 C 353.786 66.102,353.873 66.279,354.759 67.328 C 355.327 67.999,357.025 67.831,357.772 67.030 C 359.695 64.965,357.811 62.055,355.227 63.101 M216.027 64.126 C 215.984 64.260,215.805 64.893,215.629 65.534 C 215.014 67.771,211.225 78.110,210.853 78.565 C 210.582 78.897,207.379 87.756,207.379 88.175 C 207.379 88.521,207.560 88.544,210.355 88.544 L 213.331 88.544 213.555 87.330 C 213.678 86.663,214.073 85.112,214.432 83.883 L 215.087 81.650 219.254 81.598 L 223.420 81.546 224.283 85.043 L 225.146 88.539 228.301 88.542 C 230.821 88.543,231.456 88.491,231.456 88.282 C 231.456 87.660,227.237 74.951,226.483 73.301 C 226.125 72.520,224.447 67.482,223.879 65.485 L 223.423 63.883 219.764 63.883 C 217.007 63.883,216.085 63.943,216.027 64.126 M257.548 65.385 C 256.362 65.469,256.316 65.597,256.313 68.883 L 256.311 70.874 254.687 70.874 L 253.062 70.874 252.939 71.775 C 252.871 72.270,252.816 72.926,252.816 73.231 L 252.816 73.786 254.369 73.786 L 255.922 73.786 255.922 78.838 C 255.922 81.616,255.999 84.040,256.094 84.226 C 256.188 84.411,256.368 85.000,256.493 85.534 C 257.205 88.558,260.178 89.772,264.298 88.721 C 264.999 88.542,265.004 88.533,265.140 87.265 C 265.307 85.709,265.334 85.738,263.973 86.021 C 260.087 86.828,259.223 85.351,259.223 77.897 L 259.223 73.786 261.917 73.786 L 264.612 73.786 264.733 73.180 C 264.800 72.846,264.854 72.169,264.854 71.675 L 264.855 70.777 262.112 70.844 L 259.369 70.912 259.510 68.077 L 259.652 65.243 259.098 65.279 C 258.793 65.298,258.096 65.346,257.548 65.385 M343.179 65.385 C 341.993 65.469,341.947 65.597,341.944 68.883 L 341.942 70.874 340.317 70.874 L 338.692 70.874 338.571 71.602 C 338.505 72.002,338.450 72.658,338.449 73.058 L 338.447 73.786 340.092 73.786 L 341.737 73.786 341.727 78.981 C 341.711 86.963,342.336 88.405,346.045 88.938 C 349.245 89.398,350.594 88.919,350.772 87.258 C 350.938 85.713,350.962 85.739,349.632 86.015 C 345.726 86.826,344.854 85.346,344.854 77.897 L 344.854 73.786 347.547 73.786 L 350.240 73.786 350.361 73.058 C 350.427 72.658,350.482 71.981,350.483 71.553 L 350.486 70.777 347.746 70.844 L 345.006 70.912 345.148 68.077 L 345.290 65.243 344.732 65.279 C 344.426 65.298,343.727 65.346,343.179 65.385 M221.450 74.938 C 221.849 76.266,222.219 77.468,222.273 77.608 C 222.352 77.813,221.752 77.864,219.244 77.864 C 217.524 77.864,216.117 77.813,216.117 77.750 C 216.117 77.507,218.704 69.407,218.840 69.223 C 218.919 69.117,219.049 68.726,219.129 68.355 C 219.263 67.728,219.324 67.851,219.998 70.102 C 220.397 71.434,221.050 73.611,221.450 74.938 M275.023 69.999 C 269.601 71.178,266.455 77.213,268.057 83.363 C 269.988 90.776,281.513 91.513,284.754 84.431 C 288.432 76.392,282.958 68.273,275.023 69.999 M369.320 69.927 C 361.062 71.267,358.941 84.819,366.408 88.533 C 371.103 90.868,377.694 88.266,379.301 83.444 C 381.985 75.388,377.029 68.677,369.320 69.927 M297.087 70.171 C 295.886 70.436,295.440 70.647,294.145 71.565 C 293.145 72.274,293.011 72.251,293.007 71.375 C 293.002 70.324,292.827 70.226,291.226 70.376 C 289.189 70.567,289.189 70.568,289.475 72.239 C 290.111 75.948,290.222 81.535,289.772 87.233 L 289.653 88.738 291.525 88.738 L 293.398 88.738 293.398 81.781 L 293.398 74.825 293.836 74.414 C 295.308 73.030,298.227 72.563,299.954 73.434 C 301.888 74.411,302.097 75.832,301.691 85.194 L 301.537 88.738 303.368 88.738 L 305.200 88.738 305.173 81.861 L 305.146 74.984 305.620 74.478 C 307.363 72.620,311.564 72.458,312.687 74.205 C 313.426 75.355,313.607 81.412,313.079 87.330 L 312.953 88.738 314.826 88.738 L 316.699 88.738 316.684 82.184 C 316.669 75.047,316.535 73.527,315.814 72.294 C 314.205 69.545,308.673 69.167,305.499 71.590 L 304.603 72.274 304.015 71.645 C 302.708 70.247,299.672 69.601,297.087 70.171 M325.534 70.100 C 324.573 70.190,323.292 70.367,322.687 70.494 L 321.588 70.725 321.453 72.073 C 321.289 73.707,321.300 73.721,322.574 73.409 C 327.541 72.189,331.538 73.206,332.020 75.810 C 332.316 77.414,332.350 77.389,329.532 77.646 C 323.121 78.232,320.590 80.067,320.584 84.132 C 320.579 88.830,325.803 90.737,331.008 87.938 L 332.404 87.187 332.464 87.914 L 332.524 88.641 334.154 88.698 L 335.784 88.754 335.622 87.727 C 335.533 87.162,335.449 83.990,335.434 80.680 C 335.402 73.167,335.218 72.314,333.381 71.154 C 331.865 70.197,328.853 69.793,325.534 70.100 M391.845 70.115 C 390.644 70.321,389.013 71.055,388.157 71.776 L 387.586 72.256 387.482 71.759 C 387.425 71.486,387.333 71.044,387.278 70.777 C 387.162 70.218,386.709 70.165,384.779 70.481 C 383.317 70.720,383.400 70.492,383.814 73.143 C 384.192 75.558,384.296 83.705,383.994 87.170 L 383.857 88.738 385.812 88.738 L 387.767 88.738 387.767 81.761 L 387.767 74.784 388.301 74.408 C 391.620 72.069,395.475 72.591,396.420 75.507 C 396.758 76.549,396.730 86.666,396.385 88.204 L 396.265 88.738 398.133 88.738 L 400.000 88.738 400.000 81.757 C 400.000 73.112,399.857 72.323,398.066 71.116 C 396.742 70.224,393.886 69.764,391.845 70.115 M354.975 70.533 L 353.543 70.722 353.670 71.720 C 353.739 72.269,353.851 73.442,353.918 74.327 C 353.984 75.212,354.113 75.981,354.204 76.038 C 354.443 76.185,354.415 85.580,354.175 85.728 C 354.068 85.794,353.981 86.498,353.981 87.293 L 353.981 88.738 355.941 88.738 L 357.902 88.738 357.754 87.524 C 357.672 86.857,357.612 82.706,357.619 78.301 L 357.632 70.291 357.020 70.317 C 356.683 70.332,355.763 70.429,354.975 70.533 M235.215 70.629 L 234.023 70.697 234.101 74.815 C 234.308 85.826,234.407 86.522,235.941 87.835 C 237.965 89.568,242.654 89.590,245.493 87.880 C 246.596 87.216,246.602 87.215,246.602 87.668 C 246.602 88.667,246.727 88.738,248.482 88.738 L 250.126 88.738 249.966 85.777 C 249.878 84.148,249.823 80.029,249.844 76.624 L 249.882 70.432 248.699 70.556 C 248.048 70.624,247.201 70.680,246.816 70.680 L 246.117 70.679 246.181 77.734 L 246.246 84.788 245.793 85.078 C 244.113 86.152,241.245 86.525,239.750 85.864 C 237.870 85.032,237.566 83.639,237.590 75.971 L 237.607 70.485 237.008 70.523 C 236.678 70.543,235.871 70.591,235.215 70.629 M278.133 72.702 C 279.627 73.152,280.339 73.841,281.235 75.706 L 282.039 77.379 282.034 79.806 C 282.018 87.114,274.577 89.560,272.086 83.077 C 271.908 82.613,271.672 82.171,271.563 82.096 C 271.192 81.841,271.312 77.676,271.715 76.796 C 272.602 74.859,272.967 74.282,273.745 73.591 C 274.988 72.486,276.439 72.192,278.133 72.702 M372.082 72.630 C 375.003 73.441,376.957 78.294,375.917 82.154 C 374.198 88.538,366.871 88.093,365.627 81.530 C 364.580 76.009,367.878 71.462,372.082 72.630 M332.107 81.777 C 332.338 85.037,332.418 84.788,330.922 85.488 C 328.379 86.679,324.768 86.388,324.108 84.939 C 322.911 82.313,325.832 80.101,330.602 80.023 L 331.981 80.000 332.107 81.777 M97.331 84.563 C 97.333 84.990,97.372 85.142,97.419 84.901 C 97.465 84.659,97.464 84.310,97.415 84.124 C 97.366 83.938,97.328 84.136,97.331 84.563 M2.099 90.777 C 2.211 90.990,2.579 91.471,2.917 91.845 L 3.530 92.524 2.896 91.650 C 2.118 90.580,1.827 90.261,2.099 90.777 M101.157 92.864 C 101.633 93.371,102.048 93.786,102.079 93.786 C 102.225 93.786,102.071 93.612,101.214 92.807 L 100.291 91.942 101.157 92.864 M4.078 93.070 C 4.078 93.104,4.362 93.388,4.709 93.702 L 5.340 94.272 4.769 93.641 C 4.238 93.053,4.078 92.920,4.078 93.070 M5.437 94.250 C 5.437 94.384,6.807 95.200,6.890 95.116 C 6.931 95.075,6.621 94.844,6.201 94.603 C 5.781 94.361,5.437 94.202,5.437 94.250 M271.359 98.242 C 270.185 98.722,269.675 100.775,270.477 101.791 C 271.682 103.318,274.435 102.684,274.853 100.784 C 275.285 98.817,273.366 97.421,271.359 98.242 M5.527 99.684 C 4.992 100.044,4.425 100.503,4.267 100.704 C 3.963 101.090,4.384 100.834,4.994 100.262 C 5.125 100.139,5.541 99.848,5.917 99.615 C 6.504 99.252,6.745 99.029,6.551 99.029 C 6.523 99.029,6.062 99.324,5.527 99.684 M210.680 99.792 C 210.680 100.227,210.767 100.583,210.874 100.583 C 211.001 100.583,211.068 104.304,211.068 111.359 C 211.068 118.414,211.001 122.136,210.874 122.136 C 210.767 122.136,210.680 122.529,210.680 123.010 L 210.680 123.883 215.703 123.883 C 226.145 123.883,229.611 122.148,229.862 116.796 C 229.966 114.583,229.710 113.640,228.681 112.447 C 228.028 111.689,226.231 110.485,225.753 110.485 C 224.675 110.485,224.676 110.060,225.755 109.496 C 227.791 108.433,228.533 107.169,228.538 104.757 C 228.544 101.849,227.822 100.745,225.236 99.712 L 223.786 99.132 217.233 99.067 L 210.680 99.002 210.680 99.792 M190.388 101.165 C 190.805 101.592,191.190 101.942,191.244 101.942 C 191.297 101.942,191.000 101.592,190.583 101.165 C 190.165 100.738,189.780 100.388,189.727 100.388 C 189.674 100.388,189.971 100.738,190.388 101.165 M2.905 102.168 C 2.469 102.720,1.986 103.441,1.830 103.770 C 1.675 104.099,1.658 104.207,1.793 104.009 C 1.928 103.811,2.457 103.090,2.968 102.407 C 4.078 100.922,4.031 100.744,2.905 102.168 M221.420 103.181 C 223.706 104.156,223.739 107.439,221.473 108.536 C 220.467 109.023,216.625 109.527,216.329 109.211 C 216.236 109.111,216.128 107.675,216.089 106.019 L 216.019 103.010 217.087 102.884 C 218.536 102.714,220.666 102.860,221.420 103.181 M305.669 105.048 C 299.023 106.462,296.500 117.006,301.676 121.737 C 304.159 124.006,308.082 124.818,312.689 124.016 C 314.746 123.657,314.511 123.870,314.756 122.144 C 315.001 120.420,315.086 120.513,313.572 120.856 C 307.574 122.212,303.305 120.272,302.590 115.864 L 302.484 115.209 308.746 115.084 C 312.190 115.016,315.061 114.907,315.125 114.842 C 315.367 114.599,315.180 110.704,314.876 109.658 C 313.839 106.091,309.942 104.140,305.669 105.048 M259.013 105.256 C 254.845 105.722,252.644 109.093,254.253 112.547 C 254.814 113.751,255.485 114.287,257.767 115.347 C 262.925 117.744,263.142 117.898,263.176 119.202 C 263.227 121.134,260.171 121.942,256.214 121.044 C 253.653 120.463,253.902 120.400,253.634 121.695 C 253.162 123.980,253.165 123.981,259.034 123.981 L 262.438 123.981 263.792 123.301 C 265.493 122.447,266.119 121.600,266.403 119.773 C 266.939 116.326,265.805 114.982,260.468 112.733 C 254.552 110.240,257.042 106.667,263.592 108.249 C 265.424 108.691,265.370 108.719,265.645 107.183 C 265.778 106.435,265.844 105.780,265.791 105.726 C 265.415 105.350,260.942 105.040,259.013 105.256 M286.068 105.349 C 284.834 105.681,283.752 106.217,282.947 106.894 L 282.346 107.400 282.215 106.414 C 282.144 105.872,282.030 105.394,281.962 105.353 C 281.793 105.248,278.506 105.700,278.359 105.848 C 278.196 106.011,278.622 108.724,278.901 109.303 C 279.061 109.635,279.117 111.788,279.096 116.730 L 279.066 123.689 280.795 123.689 L 282.524 123.689 282.524 116.797 L 282.524 109.905 283.315 109.333 C 285.109 108.033,287.926 107.685,289.615 108.554 C 291.489 109.518,291.773 110.966,291.473 118.022 C 291.357 120.765,291.261 123.163,291.262 123.350 C 291.262 123.650,291.482 123.689,293.155 123.689 L 295.049 123.689 295.014 117.039 C 294.977 110.119,294.885 108.514,294.500 108.107 C 294.374 107.973,294.053 107.539,293.786 107.141 C 292.619 105.400,288.999 104.559,286.068 105.349 M323.933 105.269 C 320.364 105.668,318.345 108.230,319.035 111.484 C 319.465 113.509,320.789 114.657,324.275 116.026 C 327.937 117.466,328.999 118.618,328.140 120.223 C 327.523 121.376,323.912 121.748,320.874 120.971 C 320.039 120.757,319.289 120.583,319.208 120.583 C 318.990 120.583,318.402 123.335,318.583 123.507 C 319.190 124.080,325.746 124.279,327.654 123.782 C 330.123 123.139,331.296 121.676,331.428 119.074 C 331.585 115.963,330.445 114.756,325.347 112.634 C 319.488 110.196,322.131 106.726,328.674 108.267 C 329.862 108.546,330.160 108.563,330.288 108.354 C 330.483 108.040,330.931 105.817,330.822 105.709 C 330.449 105.336,325.920 105.047,323.933 105.269 M340.025 105.284 C 336.324 105.731,334.399 108.257,335.180 111.641 C 335.589 113.413,336.948 114.633,339.755 115.746 C 343.919 117.397,344.994 118.436,344.242 120.085 C 343.650 121.385,340.226 121.790,336.915 120.953 C 335.038 120.479,335.176 120.407,334.832 122.045 C 334.492 123.667,334.438 123.604,336.416 123.885 C 343.703 124.919,347.767 122.993,347.767 118.506 C 347.767 116.062,346.351 114.738,341.456 112.606 C 335.606 110.058,338.155 106.704,344.760 108.259 C 345.563 108.448,346.268 108.554,346.329 108.493 C 346.487 108.335,347.044 105.815,346.944 105.714 C 346.556 105.327,342.013 105.045,340.025 105.284 M271.879 105.542 C 269.659 105.844,269.808 105.661,270.124 107.708 C 270.311 108.918,270.388 111.501,270.388 116.553 L 270.388 123.689 272.233 123.689 L 274.078 123.689 274.078 114.466 C 274.078 108.429,274.011 105.252,273.883 105.270 C 273.777 105.284,272.875 105.407,271.879 105.542 M234.107 105.772 C 233.644 105.841,233.575 105.923,233.680 106.277 C 233.749 106.509,233.849 109.364,233.903 112.621 C 234.029 120.395,234.239 121.625,235.662 122.936 C 237.506 124.636,242.600 124.635,245.276 122.934 L 246.184 122.357 246.313 123.120 L 246.442 123.883 247.930 123.881 C 250.023 123.876,249.941 124.007,249.697 121.056 C 249.583 119.674,249.517 115.638,249.550 112.087 L 249.612 105.631 248.325 105.631 C 247.618 105.631,246.758 105.687,246.414 105.756 L 245.789 105.881 245.930 112.812 L 246.072 119.742 245.512 120.139 C 244.022 121.195,240.605 121.623,239.287 120.918 C 237.604 120.017,237.379 118.906,237.379 111.505 L 237.379 105.631 236.019 105.660 C 235.272 105.676,234.411 105.726,234.107 105.772 M310.080 108.310 C 311.016 109.062,311.589 110.156,311.753 111.505 L 311.889 112.621 307.814 112.621 C 305.572 112.621,303.465 112.676,303.131 112.743 C 301.780 113.013,303.513 109.046,305.106 108.223 C 306.763 107.366,308.953 107.404,310.080 108.310 M97.399 108.657 C 97.026 109.631,97.295 183.883,97.673 183.883 C 97.752 183.883,97.739 183.512,97.643 183.058 C 97.543 182.583,97.491 166.550,97.521 145.291 C 97.549 124.973,97.560 108.350,97.545 108.350 C 97.530 108.350,97.464 108.488,97.399 108.657 M0.050 146.359 C 0.115 187.770,-0.037 183.751,1.593 187.169 C 3.064 190.253,5.933 192.534,9.834 193.721 C 11.045 194.090,84.323 194.395,84.686 194.033 C 84.768 193.951,83.067 193.909,80.904 193.939 L 76.973 193.995 74.846 192.009 C 73.676 190.917,71.714 189.041,70.485 187.839 C 69.257 186.638,66.658 184.152,64.709 182.314 C 62.760 180.477,61.165 178.910,61.165 178.832 C 61.165 178.754,60.551 178.197,59.800 177.595 L 58.434 176.499 57.130 176.806 C 52.852 177.814,48.802 178.245,42.427 178.371 C 36.963 178.479,23.801 178.235,23.588 178.021 C 23.520 177.954,23.560 175.204,23.676 171.910 C 23.792 168.617,23.945 160.913,24.014 154.790 L 24.142 143.658 22.786 142.363 C 18.617 138.380,16.195 136.055,12.588 132.576 C 10.381 130.447,8.326 128.516,8.021 128.284 C 7.717 128.053,5.883 126.291,3.945 124.369 L 0.422 120.874 0.357 115.195 C 0.321 112.072,0.224 109.516,0.142 109.516 C 0.059 109.515,0.018 126.095,0.050 146.359 M220.172 113.208 C 222.995 113.574,224.464 114.681,224.465 116.444 C 224.468 118.928,222.727 120.011,218.639 120.068 C 216.034 120.104,216.237 120.393,216.147 116.508 L 216.072 113.234 216.628 113.151 C 217.631 113.001,218.715 113.019,220.172 113.208 M348.155 132.748 C 345.607 133.769,346.092 137.477,348.774 137.475 C 350.962 137.473,352.064 134.966,350.616 133.283 C 350.176 132.771,348.829 132.478,348.155 132.748 M214.854 146.209 L 214.854 158.641 217.730 158.641 L 220.606 158.641 220.498 157.816 C 220.361 156.771,220.268 142.910,220.363 137.767 L 220.435 133.883 217.645 133.830 L 214.854 133.777 214.854 146.209 M250.000 135.273 C 249.680 135.312,249.046 135.391,248.592 135.450 L 247.767 135.558 247.767 136.974 C 247.767 137.752,247.710 138.932,247.641 139.594 L 247.515 140.798 245.991 140.665 L 244.466 140.532 244.466 142.179 L 244.466 143.825 245.922 143.732 L 247.379 143.638 247.385 148.275 C 247.395 154.950,247.871 157.001,249.671 158.127 C 251.079 159.009,253.480 159.276,255.437 158.771 L 256.408 158.520 256.526 157.075 C 256.668 155.353,256.745 155.499,255.822 155.754 C 253.983 156.262,252.162 155.716,251.410 154.431 C 250.818 153.421,250.458 147.598,250.808 144.687 L 250.933 143.646 253.525 143.722 L 256.117 143.798 256.117 142.160 L 256.117 140.523 253.482 140.642 L 250.848 140.761 250.952 139.749 C 251.009 139.193,251.108 137.930,251.173 136.942 C 251.304 134.958,251.407 135.105,250.000 135.273 M336.162 135.337 C 334.628 135.512,334.768 135.249,334.625 138.226 L 334.503 140.779 332.931 140.729 L 331.359 140.680 331.262 142.090 C 331.136 143.929,331.045 143.832,332.805 143.730 L 334.337 143.641 334.415 149.151 C 334.499 155.037,334.614 155.840,335.581 157.299 C 336.908 159.302,343.063 159.769,343.374 157.891 C 343.619 156.413,343.528 155.479,343.155 155.630 C 342.495 155.898,340.440 155.969,339.769 155.748 C 337.937 155.143,337.644 154.166,337.527 148.279 L 337.435 143.645 340.271 143.718 L 343.107 143.792 343.107 142.157 L 343.107 140.523 340.366 140.640 L 337.625 140.757 337.751 138.680 C 337.821 137.537,337.926 136.274,337.985 135.874 C 338.106 135.056,338.252 135.099,336.162 135.337 M293.378 138.306 C 292.929 138.608,292.595 139.072,292.330 139.762 C 292.043 140.512,291.866 140.744,291.650 140.653 C 288.999 139.536,285.022 139.515,282.871 140.606 C 279.287 142.424,278.227 147.901,280.934 150.611 L 281.771 151.449 281.192 152.181 C 279.973 153.721,280.032 156.604,281.299 157.345 C 281.503 157.465,281.359 157.615,280.738 157.928 C 276.753 159.939,277.868 166.342,282.451 167.761 C 289.717 170.012,296.990 166.366,296.990 160.472 C 296.990 156.733,295.221 155.619,288.835 155.334 C 284.058 155.120,283.107 154.815,283.107 153.495 C 283.107 152.449,283.582 152.211,285.403 152.347 C 287.485 152.502,289.837 152.169,291.200 151.526 C 294.164 150.130,295.674 145.574,294.029 142.988 C 293.137 141.585,293.499 141.221,296.005 140.997 L 297.379 140.874 297.527 139.528 C 297.709 137.884,297.694 137.871,295.611 137.867 C 294.293 137.865,293.931 137.936,293.378 138.306 M265.243 139.967 C 258.160 142.601,257.087 154.342,263.613 157.805 C 265.993 159.068,270.214 159.519,273.405 158.852 C 274.885 158.543,274.914 158.510,275.112 156.887 C 275.330 155.108,275.488 155.230,273.478 155.629 C 267.841 156.748,262.718 154.297,262.718 150.481 C 262.718 150.091,265.672 149.903,271.797 149.903 L 275.572 149.903 275.502 147.330 C 275.388 143.132,273.929 140.867,270.708 139.890 C 269.451 139.508,266.359 139.552,265.243 139.967 M360.919 139.991 C 354.386 142.079,352.238 152.449,357.337 157.284 C 362.142 161.841,370.897 158.686,372.340 151.878 C 374.051 143.807,368.160 137.676,360.919 139.991 M232.570 140.005 C 231.565 140.258,230.517 140.817,229.709 141.530 C 228.824 142.311,228.812 142.307,228.674 141.139 C 228.521 139.852,228.627 139.902,226.656 140.178 C 224.553 140.472,224.724 140.136,225.145 143.157 C 225.526 145.892,225.618 152.243,225.339 156.513 L 225.200 158.641 227.163 158.641 L 229.126 158.641 229.126 151.669 L 229.126 144.697 230.045 144.088 C 232.728 142.311,236.290 142.618,237.501 144.732 C 237.997 145.596,238.176 152.653,237.812 156.942 L 237.668 158.641 239.524 158.641 L 241.380 158.641 241.321 151.214 C 241.255 142.838,241.260 142.871,239.686 141.260 C 238.517 140.064,234.885 139.423,232.570 140.005 M306.271 140.221 C 305.823 140.439,305.140 141.002,304.754 141.473 C 303.854 142.571,303.767 142.553,303.631 141.242 C 303.487 139.847,303.589 139.901,301.607 140.178 C 299.513 140.471,299.688 140.133,300.119 143.053 C 300.490 145.566,300.621 156.271,300.301 157.975 L 300.177 158.641 302.154 158.641 L 304.132 158.641 303.991 152.649 L 303.849 146.657 304.333 145.707 C 305.434 143.544,307.789 142.709,310.297 143.594 C 310.754 143.756,311.162 143.854,311.204 143.813 C 311.398 143.618,312.070 140.748,311.977 140.507 C 311.694 139.771,307.621 139.567,306.271 140.221 M316.488 140.084 C 314.124 140.498,314.247 140.400,314.101 141.974 C 313.944 143.668,313.890 143.616,315.486 143.315 C 321.457 142.187,324.516 143.145,324.802 146.231 L 324.903 147.317 322.500 147.441 C 316.194 147.764,313.312 149.783,313.304 153.883 C 313.297 157.654,315.150 159.186,319.465 158.977 C 321.784 158.864,322.433 158.691,323.940 157.783 C 325.004 157.142,325.049 157.133,325.051 157.538 C 325.059 158.807,325.154 158.869,326.870 158.724 C 327.737 158.651,328.460 158.580,328.476 158.567 C 328.491 158.554,328.414 158.063,328.303 157.476 C 328.192 156.888,328.092 153.612,328.080 150.194 C 328.053 142.399,327.704 141.381,324.686 140.273 C 323.487 139.833,318.567 139.720,316.488 140.084 M383.398 140.191 C 382.757 140.403,381.796 140.926,381.263 141.351 C 380.198 142.200,380.042 142.136,380.014 140.837 C 380.006 140.496,379.909 140.161,379.798 140.092 C 379.482 139.897,376.116 140.415,376.120 140.659 C 376.122 140.777,376.252 141.660,376.410 142.621 C 376.568 143.583,376.698 144.784,376.698 145.291 C 376.699 145.799,376.786 146.214,376.893 146.214 C 377.016 146.214,377.087 147.569,377.087 149.891 C 377.087 152.134,377.012 153.616,376.893 153.689 C 376.781 153.759,376.699 154.824,376.699 156.225 L 376.699 158.641 378.544 158.641 L 380.388 158.641 380.390 151.699 L 380.391 144.757 381.057 144.304 C 382.947 143.017,385.257 142.592,387.009 143.210 C 389.404 144.055,389.645 145.294,389.264 154.813 L 389.110 158.655 391.004 158.599 L 392.898 158.544 392.867 151.579 C 392.831 143.343,392.897 143.821,391.498 141.701 C 390.385 140.016,386.249 139.244,383.398 140.191 M347.864 140.272 L 346.311 140.490 346.379 141.653 C 346.416 142.292,346.547 142.938,346.670 143.088 C 346.830 143.283,346.893 145.528,346.893 151.001 L 346.893 158.641 348.641 158.641 L 350.388 158.641 350.388 149.321 L 350.388 140.000 349.903 140.027 C 349.636 140.042,348.718 140.153,347.864 140.272 M289.488 142.969 C 293.488 145.617,290.273 151.213,285.494 149.919 C 282.145 149.013,281.623 144.293,284.700 142.733 C 285.958 142.095,288.346 142.213,289.488 142.969 M365.354 142.813 C 368.525 144.116,369.852 149.605,367.947 153.536 C 367.386 154.692,366.044 156.117,365.515 156.117 C 365.383 156.117,365.239 156.226,365.194 156.359 C 365.020 156.880,362.334 156.656,361.359 156.038 C 355.026 152.027,358.643 140.054,365.354 142.813 M269.666 142.826 C 271.095 143.423,271.851 144.477,272.116 146.245 L 272.251 147.143 269.281 147.275 C 267.647 147.348,265.507 147.379,264.525 147.345 L 262.739 147.282 263.188 145.948 C 264.124 143.169,267.079 141.745,269.666 142.826 M324.854 152.203 C 324.854 154.852,324.820 154.916,323.086 155.521 C 319.676 156.710,316.602 155.865,316.602 153.739 C 316.602 151.418,319.197 150.032,323.738 149.928 L 324.854 149.903 324.854 152.203 M36.967 160.406 C 37.154 166.997,37.264 168.298,37.646 168.462 C 38.714 168.919,49.709 168.651,49.709 168.167 C 49.709 168.021,39.917 158.622,37.577 156.522 L 36.838 155.860 36.967 160.406 M290.619 158.832 C 292.187 159.051,293.127 159.511,293.437 160.212 C 293.575 160.523,293.753 160.777,293.834 160.777 C 294.585 160.777,293.548 163.364,292.405 164.343 C 290.317 166.130,285.170 166.340,282.976 164.728 C 281.169 163.400,281.080 160.579,282.796 159.072 L 283.476 158.475 286.447 158.570 C 288.081 158.622,289.958 158.740,290.619 158.832 M94.559 188.263 C 94.187 188.843,93.821 189.319,93.745 189.319 C 93.668 189.320,93.503 189.517,93.377 189.757 C 93.148 190.193,93.149 190.193,93.567 189.822 C 94.041 189.400,95.416 187.391,95.306 187.280 C 95.266 187.240,94.930 187.683,94.559 188.263 M100.000 188.932 C 100.228 189.252,100.458 189.515,100.512 189.515 C 100.565 189.515,100.422 189.252,100.194 188.932 C 99.966 188.612,99.736 188.350,99.682 188.350 C 99.629 188.350,99.772 188.612,100.000 188.932 M92.816 190.225 C 92.816 190.331,92.292 190.798,91.651 191.262 C 91.011 191.726,90.526 192.144,90.574 192.192 C 90.676 192.295,92.456 191.016,92.817 190.580 C 92.954 190.416,93.009 190.226,92.940 190.157 C 92.872 190.089,92.816 190.119,92.816 190.225 M102.806 191.636 C 102.942 191.854,104.669 192.872,104.756 192.784 C 104.791 192.748,104.343 192.436,103.760 192.091 C 103.177 191.746,102.748 191.541,102.806 191.636 M89.320 192.718 C 88.840 192.976,88.516 193.190,88.600 193.195 C 88.806 193.207,90.291 192.444,90.291 192.326 C 90.291 192.198,90.299 192.194,89.320 192.718 M87.476 193.398 C 87.231 193.503,87.195 193.565,87.379 193.565 C 87.539 193.565,87.845 193.490,88.058 193.398 C 88.303 193.293,88.339 193.231,88.155 193.231 C 87.995 193.231,87.689 193.306,87.476 193.398 " stroke="none" fill="#2c2c2c" fill-rule="evenodd"></path><path id="path4" d="M53.835 15.862 C 54.022 15.911,54.328 15.911,54.515 15.862 C 54.701 15.813,54.549 15.773,54.175 15.773 C 53.801 15.773,53.648 15.813,53.835 15.862 M142.840 20.814 L 140.008 25.705 140.455 26.493 C 142.222 29.610,146.107 36.231,146.216 36.311 C 146.348 36.407,148.078 39.350,153.006 47.864 C 155.599 52.344,156.714 54.072,155.135 51.165 C 154.671 50.311,153.667 48.519,152.903 47.184 C 151.464 44.670,151.276 44.186,152.138 45.210 C 152.415 45.539,153.926 47.005,155.495 48.469 C 157.065 49.932,159.922 52.643,161.845 54.493 C 163.767 56.342,165.603 58.054,165.924 58.297 C 166.245 58.539,167.582 59.807,168.894 61.114 L 171.281 63.491 163.553 63.544 L 155.825 63.597 164.709 63.643 C 170.214 63.672,173.592 63.619,173.592 63.505 C 173.592 63.404,171.638 59.974,169.249 55.884 C 161.934 43.359,154.089 29.903,150.593 23.883 C 146.325 16.537,145.955 15.922,145.800 15.922 C 145.730 15.922,144.398 18.123,142.840 20.814 M31.541 25.485 L 30.971 26.117 31.602 25.546 C 32.190 25.015,32.322 24.854,32.172 24.854 C 32.139 24.854,31.855 25.138,31.541 25.485 M138.932 39.029 C 139.098 39.350,139.277 39.612,139.330 39.612 C 139.384 39.612,139.292 39.350,139.126 39.029 C 138.961 38.709,138.781 38.447,138.728 38.447 C 138.674 38.447,138.766 38.709,138.932 39.029 M139.897 40.680 C 140.196 41.214,140.530 41.738,140.640 41.845 C 140.750 41.951,140.596 41.602,140.297 41.068 C 139.999 40.534,139.664 40.010,139.554 39.903 C 139.444 39.796,139.598 40.146,139.897 40.680 M141.031 42.621 C 141.195 42.942,141.475 43.379,141.652 43.592 C 141.830 43.806,141.779 43.631,141.539 43.204 C 141.010 42.261,140.613 41.807,141.031 42.621 M64.709 48.301 C 66.604 48.332,69.706 48.332,71.602 48.301 C 73.498 48.269,71.947 48.243,68.155 48.243 C 64.364 48.243,62.813 48.269,64.709 48.301 M154.711 52.953 C 154.953 52.999,155.302 52.998,155.488 52.949 C 155.673 52.900,155.476 52.862,155.049 52.865 C 154.621 52.867,154.469 52.906,154.711 52.953 M62.181 57.670 C 62.181 58.044,62.221 58.197,62.270 58.010 C 62.319 57.823,62.319 57.517,62.270 57.330 C 62.221 57.143,62.181 57.296,62.181 57.670 M74.616 58.835 C 74.616 59.316,74.654 59.512,74.700 59.272 C 74.746 59.032,74.746 58.638,74.700 58.398 C 74.654 58.158,74.616 58.354,74.616 58.835 M139.612 65.574 C 144.708 65.711,149.470 65.715,149.388 65.583 C 149.338 65.502,146.659 65.455,143.435 65.478 C 140.211 65.501,138.490 65.544,139.612 65.574 M74.608 66.796 C 74.608 67.170,74.648 67.323,74.697 67.136 C 74.746 66.949,74.746 66.643,74.697 66.456 C 74.648 66.269,74.608 66.422,74.608 66.796 M174.076 70.865 L 177.763 70.971 179.124 73.241 C 179.873 74.490,180.567 75.582,180.666 75.668 C 180.841 75.821,180.697 75.559,178.836 72.330 L 177.941 70.777 174.165 70.768 L 170.388 70.759 174.076 70.865 M182.427 78.835 C 182.593 79.155,182.772 79.417,182.826 79.417 C 182.879 79.417,182.787 79.155,182.621 78.835 C 182.456 78.515,182.276 78.252,182.223 78.252 C 182.170 78.252,182.262 78.515,182.427 78.835 M180.971 80.777 L 178.350 80.891 181.019 80.931 C 182.697 80.956,183.689 80.899,183.689 80.777 C 183.689 80.670,183.667 80.600,183.641 80.622 C 183.614 80.644,182.413 80.714,180.971 80.777 M138.770 113.139 C 138.699 113.210,138.642 113.363,138.644 113.479 C 138.646 113.606,138.707 113.594,138.799 113.449 C 138.915 113.267,140.647 113.196,145.932 113.155 L 152.913 113.102 145.906 113.056 C 142.053 113.030,138.841 113.068,138.770 113.139 M152.680 116.311 C 152.680 116.898,152.716 117.138,152.760 116.845 C 152.805 116.551,152.805 116.070,152.760 115.777 C 152.716 115.483,152.680 115.723,152.680 116.311 M138.897 117.087 C 138.897 117.782,138.932 118.066,138.975 117.718 C 139.018 117.371,139.018 116.803,138.975 116.456 C 138.932 116.109,138.897 116.393,138.897 117.087 M152.487 122.039 C 152.488 122.680,152.525 122.918,152.568 122.569 C 152.611 122.220,152.610 121.696,152.566 121.404 C 152.522 121.113,152.486 121.398,152.487 122.039 M139.097 123.301 C 139.097 124.209,139.130 124.580,139.171 124.126 C 139.212 123.672,139.212 122.930,139.171 122.476 C 139.130 122.022,139.097 122.393,139.097 123.301 M152.303 130.680 C 152.303 131.694,152.336 132.109,152.376 131.602 C 152.416 131.095,152.416 130.265,152.376 129.757 C 152.336 129.250,152.303 129.665,152.303 130.680 M139.301 132.427 C 139.301 134.083,139.331 134.760,139.368 133.932 C 139.404 133.104,139.404 131.750,139.368 130.922 C 139.331 130.095,139.301 130.772,139.301 132.427 M139.299 155.922 C 139.299 157.364,139.330 157.954,139.367 157.233 C 139.405 156.512,139.405 155.333,139.367 154.612 C 139.330 153.891,139.299 154.481,139.299 155.922 M152.300 157.767 C 152.300 158.621,152.334 158.947,152.375 158.490 C 152.416 158.033,152.416 157.334,152.374 156.937 C 152.332 156.539,152.299 156.913,152.300 157.767 M139.087 165.825 C 139.087 166.413,139.124 166.653,139.168 166.359 C 139.213 166.066,139.213 165.585,139.168 165.291 C 139.124 164.998,139.087 165.238,139.087 165.825 M152.480 167.379 C 152.480 167.859,152.518 168.056,152.564 167.816 C 152.611 167.575,152.611 167.182,152.564 166.942 C 152.518 166.701,152.480 166.898,152.480 167.379 M138.884 172.718 C 138.886 173.146,138.926 173.298,138.972 173.056 C 139.019 172.814,139.017 172.465,138.968 172.279 C 138.920 172.094,138.882 172.291,138.884 172.718 M152.666 173.981 C 152.666 174.354,152.706 174.507,152.755 174.320 C 152.804 174.133,152.804 173.828,152.755 173.641 C 152.706 173.454,152.666 173.607,152.666 173.981 M142.488 178.398 C 144.444 178.430,147.590 178.429,149.479 178.398 C 151.367 178.366,149.767 178.340,145.922 178.340 C 142.078 178.340,140.532 178.366,142.488 178.398 " stroke="none" fill="#43a352" fill-rule="evenodd"></path></g></svg>